<svg width="40" height="34" viewBox="0 0 40 34" fill="none" xmlns="http://www.w3.org/2000/svg">
<g clip-path="url(#clip0_52_12932)">
<path d="M22.6969 33.7898C22.6006 33.7893 22.5055 33.7691 22.4173 33.7304C22.0377 33.5709 22.0061 33.2432 22.0061 32.894V30.1206H20.8117C20.2162 30.1395 19.625 30.0145 19.0882 29.7561C18.5514 29.4977 18.0849 29.1136 17.7282 28.6364C17.2747 28.0135 17.0459 27.2552 17.0792 26.4855C17.0792 25.4378 17.0792 24.3725 17.0792 23.3426V23.216C17.0792 22.8782 17.0792 22.5416 17.0792 22.2038C17.0792 22.1153 17.0792 22.0292 17.0665 21.9305V21.9179C17.0665 21.8647 17.0665 21.8091 17.0577 21.7483H7.5277C6.0891 21.7483 4.91241 21.7483 3.82681 21.7483C2.92899 21.7666 2.04992 21.4901 1.32412 20.9613C0.652998 20.4554 0.200416 19.7122 0.0588607 18.8838C0.00580104 18.5334 -0.0136881 18.1788 0.000658638 17.8247V17.7716C0.000658638 17.6995 0.000658638 17.6274 0.000658638 17.5565C0.000658638 14.05 0.000658638 10.5432 0.000658638 7.03586V3.88915C-0.0102246 3.38833 0.0848854 2.89086 0.279751 2.42938C0.474617 1.96789 0.764837 1.55282 1.13138 1.21136C1.49792 0.869914 1.9325 0.609804 2.40662 0.448093C2.88074 0.286382 3.38369 0.226724 3.88248 0.273031H11.4905H12.8823H13.4656C14.0198 0.273031 14.5841 0.273031 15.1294 0.283153H15.1484C15.6975 0.283153 16.2656 0.29201 16.8286 0.29201C17.6498 0.29201 18.3267 0.281887 18.9581 0.259113H19.1099C20.1524 0.247709 21.1581 0.644082 21.9125 1.36369C22.2571 1.70549 22.5254 2.11636 22.6999 2.5693C22.8744 3.02224 22.951 3.50697 22.9247 3.99164C22.8918 4.96209 22.9019 5.94014 22.9108 6.88529V6.93337C22.9108 7.34458 22.9184 7.77097 22.9196 8.18851C22.9196 8.29226 22.9196 8.39348 22.9323 8.49217V8.5276C22.9323 8.56682 22.9323 8.60605 22.9386 8.64653H27.2949L34.4386 8.66678H35.638C35.8759 8.66678 36.1125 8.66678 36.3491 8.66678C37.0692 8.64828 37.7782 8.84756 38.3832 9.23856C38.9882 9.62956 39.4611 10.1941 39.74 10.8582C39.8888 11.2145 39.9691 11.5957 39.9766 11.9818C39.9905 17.4793 39.9969 22.1039 39.9766 26.8068C39.9461 27.6736 39.5847 28.4957 38.9667 29.1043C38.3487 29.7128 37.5212 30.0616 36.654 30.0788C35.4989 30.118 34.3614 30.1231 33.4997 30.1231H32.132H30.2607H29.7546H29.7229H29.065C28.6601 30.1231 28.3299 30.1231 28.025 30.1066H27.9528C27.602 30.1001 27.2619 30.2272 27.0014 30.4622C26.2232 31.1201 25.4046 31.792 24.6821 32.3841L24.6707 32.3942C24.2418 32.746 23.7977 33.1091 23.3637 33.4684C23.186 33.6504 22.95 33.7641 22.6969 33.7898ZM21.8986 28.8338H22.4173C23.155 28.8338 23.3713 29.035 23.3814 29.7271C23.3814 30.1623 23.3814 30.6216 23.3814 31.0252C23.3814 31.2454 23.3814 31.4719 23.3814 31.711L23.5396 31.5984L23.5573 31.5857H23.5649C23.6421 31.5313 23.6914 31.4908 23.7522 31.4478L24.4228 30.8987L24.4835 30.8481C25.1338 30.3167 25.8057 29.7663 26.4611 29.2159C26.7528 28.9581 27.1324 28.8222 27.5214 28.8363H27.534C29.0334 28.8363 30.5871 28.8439 32.1535 28.8439C33.4719 28.8439 34.8422 28.8439 36.2302 28.8439C36.5404 28.8707 36.8527 28.8318 37.1469 28.7296C37.441 28.6275 37.7103 28.4645 37.9372 28.2512C38.164 28.038 38.3434 27.7793 38.4635 27.492C38.5836 27.2048 38.6417 26.8954 38.6342 26.5842C38.6342 22.6745 38.6342 18.2334 38.6342 12.188C38.6381 11.8802 38.5778 11.575 38.4573 11.2917C38.3368 11.0085 38.1586 10.7534 37.9342 10.5428C37.7097 10.3321 37.4439 10.1705 37.1536 10.0682C36.8633 9.96588 36.5548 9.92511 36.2479 9.94849H31.1046C27.7352 9.94849 24.3089 9.94849 20.9205 9.94849C20.6035 9.90924 20.2817 9.93973 19.9777 10.0378C19.6736 10.136 19.3947 10.2993 19.1604 10.5165C18.9262 10.7337 18.7422 10.9994 18.6213 11.2951C18.5005 11.5908 18.4457 11.9094 18.4608 12.2285C18.452 13.4824 18.452 14.759 18.4532 15.9838V16.0154C18.4532 16.538 18.4532 17.0618 18.4532 17.5843V18.9863C18.4532 21.6964 18.4532 24.1384 18.4532 26.5778C18.4453 26.8888 18.5034 27.1979 18.6235 27.4849C18.7436 27.7718 18.9231 28.0301 19.1502 28.2427C19.3772 28.4553 19.6468 28.6175 19.941 28.7185C20.2352 28.8195 20.5475 28.857 20.8572 28.8287H21.519L21.8986 28.8338ZM10.6757 4.8305C9.79131 4.75722 8.91 5.00369 8.19197 5.52513C7.88926 5.82204 7.65646 6.18263 7.51049 6.58073C7.36451 6.97882 7.30902 7.40443 7.34804 7.82665V14.0264C7.30883 14.4489 7.36422 14.8747 7.5102 15.273C7.65619 15.6714 7.88908 16.0322 8.19197 16.3292C8.91005 16.8505 9.79132 17.097 10.6757 17.0238C11.7904 17.0238 13.1784 17.0023 13.7224 16.9441C13.7696 16.9289 13.8105 16.8987 13.8389 16.858C13.8672 16.8173 13.8814 16.7684 13.8793 16.7189V15.8978C13.8822 15.8733 13.8798 15.8486 13.8724 15.8252C13.865 15.8018 13.8527 15.7802 13.8363 15.7619C13.8199 15.7436 13.7998 15.729 13.7773 15.719C13.7549 15.7091 13.7306 15.704 13.706 15.7042H10.6909C9.05994 15.7042 8.76766 15.2651 8.76766 14.029V11.3226H13.5655C13.6072 11.3219 13.6484 11.313 13.6867 11.2965C13.725 11.2799 13.7596 11.2559 13.7886 11.226C13.8176 11.196 13.8405 11.1606 13.8558 11.1218C13.8712 11.0831 13.8787 11.0416 13.8781 10.9999V10.3825C13.8787 10.3408 13.8712 10.2993 13.8558 10.2606C13.8405 10.2218 13.8176 10.1864 13.7886 10.1564C13.7596 10.1265 13.725 10.1025 13.6867 10.0859C13.6484 10.0694 13.6072 10.0605 13.5655 10.0598H8.76893V7.82665C8.76893 6.59048 9.05994 6.15144 10.6921 6.15144H13.706C13.7305 6.15179 13.7548 6.1469 13.7773 6.13709C13.7997 6.12729 13.8198 6.1128 13.8363 6.09459C13.8527 6.07638 13.865 6.05487 13.8724 6.03151C13.8799 6.00814 13.8822 5.98346 13.8793 5.95912V5.15315C13.8814 5.10361 13.8672 5.05475 13.8389 5.01406C13.8105 4.97338 13.7696 4.94312 13.7224 4.92793C13.0405 4.86087 11.5297 4.8305 10.6757 4.8305ZM30.2126 26.1325C28.9704 26.1838 27.742 25.8564 26.6901 25.1936C26.214 24.8637 25.8284 24.4195 25.5686 23.9017C25.3089 23.384 25.1833 22.8093 25.2034 22.2304C25.234 21.5627 25.4173 20.911 25.7393 20.3253C26.0614 19.7396 26.5134 19.2357 27.0608 18.8521C25.8069 18.0145 25.3844 17.4388 25.3844 16.5747C25.4078 16.0053 25.5825 15.4524 25.8905 14.9728C26.1045 14.6097 26.4074 14.3069 26.7705 14.0929C27.1337 13.8788 27.5453 13.7606 27.9668 13.7493C28.4434 13.7574 28.911 13.8812 29.3292 14.1103C29.7473 14.3393 30.1035 14.6666 30.367 15.0639L30.1848 15.2841C29.6395 15.0482 29.0505 14.9301 28.4564 14.9374C27.162 14.9374 26.2232 15.5435 26.2232 15.9496C26.2232 16.4114 26.4953 16.7834 27.1975 17.2769C27.5506 17.5425 27.9532 17.7348 28.3818 17.8425C28.5732 17.8296 28.7596 17.7756 28.9284 17.6843L28.9954 17.6539C30.0393 17.1883 31.0527 16.7796 32.0118 16.4405L32.07 16.4709L31.6436 17.8475C30.3361 18.2961 29.0667 18.8491 27.8478 19.5012C26.6711 20.1655 25.9702 21.0297 25.9702 21.8129C25.9702 23.5842 28.0224 24.7723 31.0742 24.7723C32.0329 24.7797 32.9893 24.6778 33.9249 24.4686L34.0046 24.6572C33.4032 25.086 32.7761 25.4777 32.1269 25.8301C31.5178 26.0668 30.865 26.1699 30.2126 26.1325Z" fill="#1D1E20" style="fill:#1D1E20;fill:color(display-p3 0.1137 0.1176 0.1255);fill-opacity:1;"/>
</g>
<defs>
<clipPath id="clip0_52_12932">
<rect width="40" height="33.5294" fill="white" style="fill:white;fill-opacity:1;" transform="translate(0 0.265625)"/>
</clipPath>
</defs>
</svg>
