<svg width="1252" height="668" viewBox="0 0 1252 668" fill="none" xmlns="http://www.w3.org/2000/svg">
<rect x="36.2288" width="1.22027" height="668" fill="#D0D5DF" fill-opacity="0.5"/>
<rect x="126.486" width="1.22027" height="668" fill="#D0D5DF" fill-opacity="0.5"/>
<rect x="216.743" width="1.22027" height="668" fill="#D0D5DF" fill-opacity="0.5"/>
<rect x="307" width="1.22027" height="668" fill="#D0D5DF" fill-opacity="0.5"/>
<rect x="397.257" width="1.22027" height="668" fill="#D0D5DF" fill-opacity="0.5"/>
<rect x="487.515" width="1.22027" height="668" fill="#D0D5DF" fill-opacity="0.5"/>
<rect x="577.772" width="1.22027" height="668" fill="#D0D5DF" fill-opacity="0.5"/>
<rect x="668.029" width="1.22027" height="668" fill="#D0D5DF" fill-opacity="0.5"/>
<rect x="758.286" width="1.22027" height="668" fill="#D0D5DF" fill-opacity="0.5"/>
<rect x="848.543" width="1.22027" height="668" fill="#D0D5DF" fill-opacity="0.5"/>
<rect x="938.8" width="1.22027" height="668" fill="#D0D5DF" fill-opacity="0.5"/>
<rect x="1029.06" width="1.22027" height="668" fill="#D0D5DF" fill-opacity="0.5"/>
<rect x="1119.31" width="1.22027" height="668" fill="#D0D5DF" fill-opacity="0.5"/>
<rect x="1209.57" width="1.22027" height="668" fill="#D0D5DF" fill-opacity="0.5"/>
<rect x="1252" y="5.18481" width="1.13821" height="1252" transform="rotate(90 1252 5.18481)" fill="#D0D5DF" fill-opacity="0.5"/>
<rect x="1252" y="35.399" width="1.13821" height="1252" transform="rotate(90 1252 35.399)" fill="#D0D5DF" fill-opacity="0.5"/>
<rect x="1252" y="65.6126" width="1.13821" height="1252" transform="rotate(90 1252 65.6126)" fill="#D0D5DF" fill-opacity="0.5"/>
<rect x="1252" y="95.8266" width="1.13821" height="1252" transform="rotate(90 1252 95.8266)" fill="#D0D5DF" fill-opacity="0.5"/>
<rect x="1252" y="126.04" width="1.13821" height="1252" transform="rotate(90 1252 126.04)" fill="#D0D5DF" fill-opacity="0.5"/>
<rect x="1252" y="156.254" width="1.13821" height="1252" transform="rotate(90 1252 156.254)" fill="#D0D5DF" fill-opacity="0.5"/>
<rect x="1252" y="186.468" width="1.13821" height="1252" transform="rotate(90 1252 186.468)" fill="#D0D5DF" fill-opacity="0.5"/>
<rect x="1252" y="216.682" width="1.13821" height="1252" transform="rotate(90 1252 216.682)" fill="#D0D5DF" fill-opacity="0.5"/>
<rect x="1252" y="246.896" width="1.13821" height="1252" transform="rotate(90 1252 246.896)" fill="#D0D5DF" fill-opacity="0.5"/>
<rect x="1252" y="277.11" width="1.13821" height="1252" transform="rotate(90 1252 277.11)" fill="#D0D5DF" fill-opacity="0.5"/>
<rect x="1252" y="307.324" width="1.13821" height="1252" transform="rotate(90 1252 307.324)" fill="#D0D5DF" fill-opacity="0.5"/>
<rect x="1252" y="337.538" width="1.13821" height="1252" transform="rotate(90 1252 337.538)" fill="#D0D5DF" fill-opacity="0.5"/>
<rect x="1252" y="367.751" width="1.13821" height="1252" transform="rotate(90 1252 367.751)" fill="#D0D5DF" fill-opacity="0.5"/>
<rect x="1252" y="397.965" width="1.13821" height="1252" transform="rotate(90 1252 397.965)" fill="#D0D5DF" fill-opacity="0.5"/>
<rect x="1252" y="428.179" width="1.13821" height="1252" transform="rotate(90 1252 428.179)" fill="#D0D5DF" fill-opacity="0.5"/>
<rect x="1252" y="458.393" width="1.13821" height="1252" transform="rotate(90 1252 458.393)" fill="#D0D5DF" fill-opacity="0.5"/>
<rect x="1252" y="488.607" width="1.13821" height="1252" transform="rotate(90 1252 488.607)" fill="#D0D5DF" fill-opacity="0.5"/>
<rect x="1252" y="518.821" width="1.13821" height="1252" transform="rotate(90 1252 518.821)" fill="#D0D5DF" fill-opacity="0.5"/>
<rect x="1252" y="549.034" width="1.13821" height="1252" transform="rotate(90 1252 549.034)" fill="#D0D5DF" fill-opacity="0.5"/>
<rect x="1252" y="579.248" width="1.13821" height="1252" transform="rotate(90 1252 579.248)" fill="#D0D5DF" fill-opacity="0.5"/>
<rect x="1252" y="609.462" width="1.13821" height="1252" transform="rotate(90 1252 609.462)" fill="#D0D5DF" fill-opacity="0.5"/>
<rect x="1252" y="639.676" width="1.13821" height="1252" transform="rotate(90 1252 639.676)" fill="#D0D5DF" fill-opacity="0.5"/>
</svg>
